<svg id="Calque_1" data-name="Calque 1" xmlns="http://www.w3.org/2000/svg" viewBox="0 0 180.01 103.9"><defs><style>.cls-1{fill:#3D4857;}</style></defs><title>Pattern PDG</title><polygon class="cls-1" points="92.16 62.96 41.06 92.47 60.86 103.9 63.7 103.9 81.97 93.35 81.97 103.9 82.97 103.9 82.97 91.62 62.28 103.56 43.06 92.47 91.81 64.32 91.81 65.43 92.81 65.43 92.81 64.49 141.26 92.47 122.19 103.48 101.64 91.62 101.64 103.9 102.64 103.9 102.64 93.35 120.91 103.9 123.46 103.9 143.26 92.47 92.41 63.11 92.16 62.96"/><polygon class="cls-1" points="121.19 0.42 121.19 24.5 163.62 0 161.37 0 122.62 22.37 122.62 0.82 124.04 0 120.49 0 121.22 0.42 121.19 0.42"/><polygon class="cls-1" points="63.16 0.42 63.1 0.42 63.83 0 60.19 0 61.61 0.82 61.61 22.37 22.86 0 20.73 0 63.16 24.5 63.16 0.42"/><polygon class="cls-1" points="130.52 40.66 151.37 52.7 151.6 52.3 151.6 74.57 103.31 46.69 103.79 46.41 103.29 45.54 102.49 46 102.49 0 101.49 0 101.49 46.8 101.81 46.98 102.06 47.41 102.31 47.27 152.6 76.3 152.6 52.52 171.26 41.74 171.26 97.47 171.16 97.41 170.73 98.16 160.8 103.9 162.8 103.9 171.6 98.82 172.39 99.28 172.89 98.41 172.26 98.05 172.26 40.4 171.58 40.4 151.82 51.81 132.52 40.66 180.01 13.25 180.01 12.09 130.52 40.66"/><polygon class="cls-1" points="82.16 47.18 82.56 47.41 83.06 46.54 82.83 46.41 82.83 0 81.83 0 81.83 45.83 81.33 45.54 80.83 46.41 81.02 46.52 32.72 74.4 32.72 52.69 53.83 40.67 2.97 11.3 2.72 11.16 0 12.73 0 13.88 2.22 12.6 2.22 13.56 3.22 13.56 3.22 12.6 51.82 40.66 32.38 51.74 12.85 40.47 12.69 40.4 12.06 40.4 12.06 98.22 11.72 98.41 12.22 99.28 12.87 98.9 21.52 103.9 23.52 103.9 13.87 98.32 13.95 98.28 13.45 97.41 13.06 97.64 13.06 41.76 31.72 52.54 31.72 76.3 82.16 47.18"/><rect class="cls-1" x="91.81" y="103.33" width="1" height="0.57"/><rect class="cls-1" x="91.81" y="79.39" width="1" height="2"/><rect class="cls-1" x="91.81" y="83.38" width="1" height="2"/><rect class="cls-1" x="91.81" y="87.37" width="1" height="1.99"/><rect class="cls-1" x="91.81" y="71.41" width="1" height="1.99"/><rect class="cls-1" x="91.81" y="67.42" width="1" height="1.99"/><rect class="cls-1" x="91.81" y="91.36" width="1" height="1.99"/><rect class="cls-1" x="91.81" y="75.4" width="1" height="2"/><rect class="cls-1" x="91.81" y="95.35" width="1" height="1.99"/><rect class="cls-1" x="91.81" y="99.34" width="1" height="2"/><rect class="cls-1" x="91.81" y="19.54" width="1" height="1.99"/><rect class="cls-1" x="91.81" y="27.52" width="1" height="2"/><rect class="cls-1" x="91.81" y="23.53" width="1" height="1.99"/><rect class="cls-1" x="91.81" y="11.57" width="1" height="2"/><rect class="cls-1" x="91.81" y="15.56" width="1" height="1.99"/><rect class="cls-1" x="91.81" y="7.58" width="1" height="2"/><rect class="cls-1" x="91.81" y="47.47" width="1" height="1.99"/><rect class="cls-1" x="91.81" y="59.44" width="1" height="2"/><rect class="cls-1" x="91.81" y="55.45" width="1" height="2"/><rect class="cls-1" x="91.81" y="39.49" width="1" height="1.99"/><rect class="cls-1" x="91.81" y="35.5" width="1" height="2"/><rect class="cls-1" x="91.81" y="31.51" width="1" height="2"/><rect class="cls-1" x="91.81" y="43.48" width="1" height="1.99"/><rect class="cls-1" x="91.81" y="3.59" width="1" height="2"/><rect class="cls-1" x="91.81" width="1" height="1.59"/><rect class="cls-1" x="2.22" y="35.5" width="1" height="2"/><rect class="cls-1" x="2.22" y="55.45" width="1" height="2"/><rect class="cls-1" x="2.22" y="51.46" width="1" height="2"/><rect class="cls-1" x="2.22" y="47.47" width="1" height="1.99"/><rect class="cls-1" x="2.22" y="59.44" width="1" height="2"/><rect class="cls-1" x="2.22" y="31.51" width="1" height="2"/><rect class="cls-1" x="2.22" y="63.43" width="1" height="1.99"/><rect class="cls-1" x="2.22" y="43.48" width="1" height="1.99"/><rect class="cls-1" x="2.22" y="27.52" width="1" height="2"/><rect class="cls-1" x="2.22" y="39.49" width="1" height="1.99"/><rect class="cls-1" x="2.22" y="95.35" width="1" height="1.99"/><rect class="cls-1" x="2.22" y="91.36" width="1" height="1.99"/><rect class="cls-1" x="2.22" y="83.38" width="1" height="2"/><rect class="cls-1" x="2.22" y="67.42" width="1" height="1.99"/><rect class="cls-1" x="2.22" y="23.53" width="1" height="1.99"/><rect class="cls-1" x="2.22" y="87.37" width="1" height="1.99"/><rect class="cls-1" x="2.22" y="79.39" width="1" height="2"/><rect class="cls-1" x="2.22" y="71.41" width="1" height="1.99"/><rect class="cls-1" x="2.22" y="75.4" width="1" height="2"/><rect class="cls-1" x="2.22" y="15.56" width="1" height="1.99"/><rect class="cls-1" x="2.22" y="19.54" width="1" height="1.99"/><rect class="cls-1" x="2.22" y="99.34" width="1" height="2"/><rect class="cls-1" x="2.22" y="3.59" width="1" height="2"/><rect class="cls-1" x="2.22" y="7.58" width="1" height="2"/><rect class="cls-1" x="167.82" y="95.35" width="1" height="2" transform="translate(0.73 193.96) rotate(-60.01)"/><rect class="cls-1" x="84.9" y="47.47" width="1" height="1.99" transform="matrix(0.5, -0.87, 0.87, 0.5, 0.72, 98.19)"/><rect class="cls-1" x="98.72" y="55.45" width="1" height="2" transform="translate(0.72 114.16) rotate(-60)"/><rect class="cls-1" x="95.26" y="53.46" width="1" height="1.99" transform="translate(0.73 110.17) rotate(-60.01)"/><rect class="cls-1" x="88.35" y="49.47" width="1" height="1.99" transform="matrix(0.5, -0.87, 0.87, 0.5, 0.72, 102.17)"/><rect class="cls-1" x="157.46" y="89.37" width="1" height="1.99" transform="matrix(0.5, -0.87, 0.87, 0.5, 0.71, 181.97)"/><rect class="cls-1" x="129.82" y="73.41" width="1" height="1.99" transform="translate(0.73 150.07) rotate(-60.01)"/><rect class="cls-1" x="119.45" y="67.42" width="1" height="1.99" transform="translate(0.73 138.1) rotate(-60.01)"/><rect class="cls-1" x="150.55" y="85.38" width="1" height="1.99" transform="matrix(0.5, -0.87, 0.87, 0.5, 0.71, 173.99)"/><rect class="cls-1" x="122.9" y="69.42" width="1" height="2" transform="translate(0.73 142.09) rotate(-60.01)"/><rect class="cls-1" x="164.37" y="93.36" width="1" height="1.99" transform="translate(0.73 189.97) rotate(-60.01)"/><rect class="cls-1" x="143.64" y="81.39" width="1" height="1.99" transform="matrix(0.5, -0.87, 0.87, 0.5, 0.72, 166.01)"/><rect class="cls-1" x="136.73" y="77.4" width="1" height="1.99" transform="translate(0.73 158.05) rotate(-60.01)"/><rect class="cls-1" x="140.18" y="79.39" width="1" height="1.99" transform="translate(0.73 162.04) rotate(-60.01)"/><rect class="cls-1" x="133.27" y="75.4" width="1" height="1.99" transform="translate(0.73 154.06) rotate(-60.01)"/><rect class="cls-1" x="147.09" y="83.38" width="1" height="1.99" transform="translate(0.73 170.03) rotate(-60.01)"/><rect class="cls-1" x="154" y="87.37" width="1" height="1.99" transform="matrix(0.5, -0.87, 0.87, 0.5, 0.71, 177.98)"/><rect class="cls-1" x="102.17" y="57.45" width="1" height="1.99" transform="translate(0.73 118.15) rotate(-60.01)"/><rect class="cls-1" x="115.99" y="65.43" width="1" height="2" transform="translate(0.73 134.11) rotate(-60.01)"/><rect class="cls-1" x="160.91" y="91.36" width="1" height="1.99" transform="matrix(0.5, -0.87, 0.87, 0.5, 0.71, 185.96)"/><rect class="cls-1" x="112.54" y="63.43" width="1" height="1.99" transform="translate(0.73 130.12) rotate(-60.01)"/><rect class="cls-1" x="105.63" y="59.44" width="1" height="1.99" transform="translate(0.73 122.14) rotate(-60.01)"/><rect class="cls-1" x="109.08" y="61.44" width="1" height="1.99" transform="translate(0.73 126.13) rotate(-60.01)"/><rect class="cls-1" x="126.36" y="71.41" width="1" height="1.99" transform="translate(0.73 146.08) rotate(-60.01)"/><rect class="cls-1" x="43.43" y="23.53" width="1" height="1.99" transform="translate(0.72 50.32) rotate(-60.01)"/><rect class="cls-1" x="39.98" y="21.54" width="1" height="1.99" transform="translate(0.72 46.33) rotate(-60.01)"/><rect class="cls-1" x="46.89" y="25.53" width="1" height="1.99" transform="translate(0.72 54.31) rotate(-60.01)"/><rect class="cls-1" x="53.8" y="29.52" width="1" height="1.99" transform="translate(0.72 62.29) rotate(-60.01)"/><rect class="cls-1" x="50.34" y="27.52" width="1" height="2" transform="translate(0.72 58.3) rotate(-60.01)"/><rect class="cls-1" x="29.61" y="15.55" width="1" height="1.99" transform="translate(0.72 34.36) rotate(-60.01)"/><rect class="cls-1" x="36.52" y="19.54" width="1" height="1.99" transform="translate(0.72 42.34) rotate(-60.01)"/><rect class="cls-1" x="33.07" y="17.55" width="1" height="1.99" transform="translate(0.72 38.35) rotate(-60.01)"/><rect class="cls-1" x="26.16" y="13.56" width="1" height="2" transform="translate(0.72 30.37) rotate(-60.01)"/><rect class="cls-1" x="71.08" y="39.49" width="1" height="1.99" transform="matrix(0.5, -0.87, 0.87, 0.5, 0.72, 82.23)"/><rect class="cls-1" x="77.99" y="43.48" width="1" height="1.99" transform="translate(0.73 90.22) rotate(-60.01)"/><rect class="cls-1" x="67.62" y="37.5" width="1" height="1.99" transform="matrix(0.5, -0.87, 0.87, 0.5, 0.72, 78.24)"/><rect class="cls-1" x="57.25" y="31.51" width="1" height="1.99" transform="translate(0.72 66.28) rotate(-60.01)"/><rect class="cls-1" x="60.71" y="33.51" width="1" height="1.99" transform="translate(0.72 70.27) rotate(-60.01)"/><rect class="cls-1" x="64.16" y="35.5" width="1" height="1.99" transform="translate(0.72 74.26) rotate(-60.01)"/><rect class="cls-1" x="74.53" y="41.49" width="1" height="2" transform="translate(0.72 86.23) rotate(-60)"/><rect class="cls-1" x="5.43" y="1.59" width="1" height="1.99" transform="matrix(0.5, -0.87, 0.87, 0.5, 0.72, 6.42)"/><rect class="cls-1" x="178.19" y="101.34" width="1" height="1.99" transform="matrix(0.5, -0.87, 0.87, 0.5, 0.71, 205.9)"/><rect class="cls-1" x="15.79" y="7.58" width="1" height="1.99" transform="matrix(0.5, -0.87, 0.87, 0.5, 0.72, 18.39)"/><rect class="cls-1" x="19.25" y="9.57" width="1" height="1.99" transform="translate(0.72 22.39) rotate(-60.01)"/><rect class="cls-1" x="12.34" y="5.58" width="1" height="1.99" transform="matrix(0.5, -0.87, 0.87, 0.5, 0.72, 14.4)"/><rect class="cls-1" x="8.88" y="3.59" width="1" height="2" transform="translate(0.72 10.42) rotate(-60)"/><rect class="cls-1" x="22.7" y="11.56" width="1" height="1.99" transform="translate(0.72 26.38) rotate(-60.01)"/><rect class="cls-1" x="174.73" y="99.34" width="1" height="1.99" transform="matrix(0.5, -0.87, 0.87, 0.5, 0.71, 201.91)"/><polygon class="cls-1" points="0 103.23 0.06 103.27 0.56 102.4 0 102.08 0 103.23"/><rect class="cls-1" x="177.69" y="2.09" width="1.99" height="1" transform="translate(22.64 89.68) rotate(-29.99)"/><rect class="cls-1" x="49.85" y="75.9" width="1.99" height="1" transform="translate(-31.38 35.65) rotate(-29.99)"/><rect class="cls-1" x="56.76" y="71.91" width="2" height="1" transform="translate(-28.47 38.57) rotate(-30)"/><rect class="cls-1" x="174.24" y="4.08" width="1.99" height="1" transform="translate(21.18 88.22) rotate(-29.99)"/><rect class="cls-1" x="46.39" y="77.89" width="1.99" height="1" transform="translate(-32.85 34.2) rotate(-30)"/><rect class="cls-1" x="60.21" y="69.91" width="1.99" height="1" transform="translate(-27.01 40.04) rotate(-30)"/><rect class="cls-1" x="39.48" y="81.88" width="1.99" height="1" transform="translate(-35.77 31.28) rotate(-30)"/><rect class="cls-1" x="36.03" y="83.88" width="1.99" height="1" transform="translate(-37.22 29.81) rotate(-29.99)"/><rect class="cls-1" x="63.67" y="67.92" width="1.99" height="1" transform="translate(-25.55 41.51) rotate(-30)"/><rect class="cls-1" x="32.57" y="85.87" width="2" height="1" transform="translate(-38.68 28.35) rotate(-29.99)"/><rect class="cls-1" x="8.38" y="99.84" width="2" height="1" transform="translate(-48.9 18.13) rotate(-29.99)"/><rect class="cls-1" x="4.93" y="101.83" width="1.99" height="1" transform="translate(-50.36 16.67) rotate(-29.99)"/><polygon class="cls-1" points="3.22 103.33 2.22 103.33 2.22 103.51 2 103.9 3.37 103.9 3.22 103.64 3.22 103.33"/><rect class="cls-1" x="42.94" y="79.89" width="1.99" height="1" transform="translate(-34.31 32.74) rotate(-30)"/><rect class="cls-1" x="53.3" y="73.9" width="1.99" height="1" transform="translate(-29.93 37.12) rotate(-30)"/><polygon class="cls-1" points="91.69 53.39 91.81 53.33 91.81 53.46 92.81 53.46 92.81 53.33 92.92 53.39 93.42 52.53 93.31 52.46 93.42 52.4 92.92 51.53 92.81 51.59 92.81 51.46 91.81 51.46 91.81 51.59 91.69 51.53 91.19 52.4 91.31 52.46 91.19 52.53 91.69 53.39"/><rect class="cls-1" x="98.22" y="47.97" width="1.99" height="1" transform="translate(-10.94 56.09) rotate(-29.99)"/><rect class="cls-1" x="94.77" y="49.97" width="1.99" height="1" transform="translate(-12.4 54.63) rotate(-29.99)"/><rect class="cls-1" x="108.59" y="41.99" width="1.99" height="1" transform="translate(-6.56 60.47) rotate(-29.99)"/><rect class="cls-1" x="115.5" y="38" width="1.99" height="1" transform="translate(-3.64 63.39) rotate(-29.99)"/><rect class="cls-1" x="112.04" y="39.99" width="1.99" height="1" transform="translate(-5.1 61.93) rotate(-29.99)"/><rect class="cls-1" x="74.03" y="61.94" width="1.99" height="1" transform="translate(-21.16 45.87) rotate(-29.99)"/><rect class="cls-1" x="67.12" y="65.92" width="1.99" height="1" transform="translate(-24.08 42.95) rotate(-29.99)"/><rect class="cls-1" x="77.49" y="59.94" width="1.99" height="1" transform="translate(-19.71 47.35) rotate(-30)"/><rect class="cls-1" x="70.58" y="63.93" width="1.99" height="1" transform="translate(-22.63 44.43) rotate(-30)"/><rect class="cls-1" x="80.94" y="57.95" width="2" height="1" transform="translate(-18.24 48.79) rotate(-29.99)"/><rect class="cls-1" x="87.85" y="53.96" width="1.99" height="1" transform="translate(-15.32 51.71) rotate(-29.99)"/><rect class="cls-1" x="118.95" y="36" width="1.99" height="1" transform="translate(-2.18 64.85) rotate(-29.99)"/><rect class="cls-1" x="84.4" y="55.95" width="1.99" height="1" transform="translate(-16.78 50.25) rotate(-29.99)"/><rect class="cls-1" x="156.96" y="14.06" width="1.99" height="1" transform="translate(13.87 80.91) rotate(-29.99)"/><rect class="cls-1" x="105.13" y="43.98" width="2" height="1" transform="translate(-8.02 59.01) rotate(-29.99)"/><rect class="cls-1" x="143.14" y="22.04" width="1.99" height="1" transform="translate(8.05 75.1) rotate(-30)"/><rect class="cls-1" x="136.23" y="26.03" width="1.99" height="1" transform="translate(5.12 72.18) rotate(-30)"/><rect class="cls-1" x="15.29" y="95.85" width="1.99" height="1" transform="translate(-46 21.06) rotate(-30)"/><rect class="cls-1" x="125.86" y="32.01" width="1.99" height="1" transform="translate(0.74 67.79) rotate(-30)"/><rect class="cls-1" x="122.41" y="34.01" width="1.99" height="1" transform="translate(-0.72 66.33) rotate(-30)"/><rect class="cls-1" x="160.42" y="12.06" width="1.99" height="1" transform="translate(15.35 82.4) rotate(-30)"/><rect class="cls-1" x="146.59" y="20.04" width="1.99" height="1" transform="translate(9.51 76.56) rotate(-30)"/><rect class="cls-1" x="153.51" y="16.05" width="1.99" height="1" transform="translate(12.43 79.48) rotate(-30)"/><rect class="cls-1" x="150.05" y="18.05" width="2" height="1" transform="translate(10.94 77.95) rotate(-29.98)"/><rect class="cls-1" x="139.68" y="24.03" width="1.99" height="1" transform="translate(6.59 73.64) rotate(-30)"/><rect class="cls-1" x="129.32" y="30.02" width="2" height="1" transform="translate(2.2 69.24) rotate(-30)"/><rect class="cls-1" x="167.33" y="8.07" width="1.99" height="1" transform="translate(18.26 85.3) rotate(-29.99)"/><rect class="cls-1" x="170.78" y="6.08" width="1.99" height="1" transform="translate(19.72 86.76) rotate(-29.99)"/><rect class="cls-1" x="163.87" y="10.07" width="1.99" height="1" transform="translate(16.8 83.84) rotate(-29.99)"/><rect class="cls-1" x="132.77" y="28.02" width="1.99" height="1" transform="translate(3.66 70.69) rotate(-29.99)"/><rect class="cls-1" x="25.66" y="89.86" width="1.99" height="1" transform="translate(-41.6 25.43) rotate(-29.99)"/><rect class="cls-1" x="18.75" y="93.85" width="1.99" height="1" transform="translate(-44.54 22.52) rotate(-30)"/><rect class="cls-1" x="29.11" y="87.87" width="1.99" height="1" transform="translate(-40.14 26.89) rotate(-29.99)"/><rect class="cls-1" x="22.2" y="91.86" width="1.99" height="1" transform="translate(-43.08 23.98) rotate(-30)"/><polygon class="cls-1" points="1.86 1.93 2.45 1.59 3.22 1.59 3.22 1.28 3.34 1.07 3.58 0.94 3.5 0.8 3.58 0.66 3.34 0.52 3.22 0.31 3.22 0 1.66 0 1.36 0.53 1.82 0.8 1.36 1.07 1.86 1.93"/><polygon class="cls-1" points="0 2.71 0 3 0.13 2.93 0 2.71"/></svg>
